<mxfile host="app.diagrams.net" modified="2024-01-31T01:41:38.928Z" agent="Mozilla/5.0 (iPhone; CPU iPhone OS 17_3 like Mac OS X) AppleWebKit/605.1.15 (KHTML, like Gecko) CriOS/120.0.6099.119 Mobile/15E148 Safari/604.1" version="23.0.2" etag="maAY5Y7nCGl2MFdNQ-Cz" type="github">
  <diagram name="Page-1" id="O_C9-N3GpXDZ5PTOFJx7">
    <mxGraphModel>
      <root>
        <mxCell id="0" />
        <mxCell id="1" parent="0" />
      </root>
    </mxGraphModel>
  </diagram>
</mxfile>
